<svg xmlns="http://www.w3.org/2000/svg" width="1280" height="800" viewBox="0 0 1280 800">
  <defs>
    <linearGradient id="sky" x1="0" x2="0" y1="0" y2="1">
      <stop offset="0" stop-color="#eef4f7"/>
      <stop offset="1" stop-color="#fbfaf5"/>
    </linearGradient>
    <linearGradient id="panel" x1="0" x2="1" y1="0" y2="1">
      <stop offset="0" stop-color="#f6f5ee"/>
      <stop offset="1" stop-color="#cfd2cc"/>
    </linearGradient>
    <filter id="softShadow" color-interpolation-filters="sRGB">
      <feDropShadow dx="0" dy="18" stdDeviation="20" flood-color="#0f172a" flood-opacity="0.18"/>
    </filter>
  </defs>
  <rect width="1280" height="800" fill="url(#sky)"/>
  <circle cx="1120" cy="110" r="62" fill="#f0d58b" opacity="0.45"/>
  <polygon points="402.0,575.0 878.0,575.0 514.0,965.0 38.0,965.0" fill="#dfe6df" stroke="#087f72" stroke-width="5" opacity="1"/>
  <line x1="416.0" y1="575.0" x2="52.0" y2="965.0" stroke="#cbd5df" stroke-width="1" opacity="0.55"/><line x1="444.0" y1="575.0" x2="80.0" y2="965.0" stroke="#cbd5df" stroke-width="1" opacity="0.55"/><line x1="472.0" y1="575.0" x2="108.0" y2="965.0" stroke="#cbd5df" stroke-width="1" opacity="0.55"/><line x1="500.0" y1="575.0" x2="136.0" y2="965.0" stroke="#cbd5df" stroke-width="1" opacity="0.55"/><line x1="528.0" y1="575.0" x2="164.0" y2="965.0" stroke="#cbd5df" stroke-width="1" opacity="0.55"/><line x1="556.0" y1="575.0" x2="192.0" y2="965.0" stroke="#cbd5df" stroke-width="1" opacity="0.55"/><line x1="584.0" y1="575.0" x2="220.0" y2="965.0" stroke="#cbd5df" stroke-width="1" opacity="0.55"/><line x1="612.0" y1="575.0" x2="248.0" y2="965.0" stroke="#cbd5df" stroke-width="1" opacity="0.55"/><line x1="640.0" y1="575.0" x2="276.0" y2="965.0" stroke="#cbd5df" stroke-width="1" opacity="0.55"/><line x1="668.0" y1="575.0" x2="304.0" y2="965.0" stroke="#cbd5df" stroke-width="1" opacity="0.55"/><line x1="696.0" y1="575.0" x2="332.0" y2="965.0" stroke="#cbd5df" stroke-width="1" opacity="0.55"/><line x1="724.0" y1="575.0" x2="360.0" y2="965.0" stroke="#cbd5df" stroke-width="1" opacity="0.55"/><line x1="752.0" y1="575.0" x2="388.0" y2="965.0" stroke="#cbd5df" stroke-width="1" opacity="0.55"/><line x1="780.0" y1="575.0" x2="416.0" y2="965.0" stroke="#cbd5df" stroke-width="1" opacity="0.55"/><line x1="808.0" y1="575.0" x2="444.0" y2="965.0" stroke="#cbd5df" stroke-width="1" opacity="0.55"/><line x1="836.0" y1="575.0" x2="472.0" y2="965.0" stroke="#cbd5df" stroke-width="1" opacity="0.55"/><line x1="864.0" y1="575.0" x2="500.0" y2="965.0" stroke="#cbd5df" stroke-width="1" opacity="0.55"/><line x1="402.0" y1="575.0" x2="878.0" y2="575.0" stroke="#cbd5df" stroke-width="1" opacity="0.55"/><line x1="388.0" y1="590.0" x2="864.0" y2="590.0" stroke="#cbd5df" stroke-width="1" opacity="0.55"/><line x1="374.0" y1="605.0" x2="850.0" y2="605.0" stroke="#cbd5df" stroke-width="1" opacity="0.55"/><line x1="360.0" y1="620.0" x2="836.0" y2="620.0" stroke="#cbd5df" stroke-width="1" opacity="0.55"/><line x1="346.0" y1="635.0" x2="822.0" y2="635.0" stroke="#cbd5df" stroke-width="1" opacity="0.55"/><line x1="332.0" y1="650.0" x2="808.0" y2="650.0" stroke="#cbd5df" stroke-width="1" opacity="0.55"/><line x1="318.0" y1="665.0" x2="794.0" y2="665.0" stroke="#cbd5df" stroke-width="1" opacity="0.55"/><line x1="304.0" y1="680.0" x2="780.0" y2="680.0" stroke="#cbd5df" stroke-width="1" opacity="0.55"/><line x1="290.0" y1="695.0" x2="766.0" y2="695.0" stroke="#cbd5df" stroke-width="1" opacity="0.55"/><line x1="276.0" y1="710.0" x2="752.0" y2="710.0" stroke="#cbd5df" stroke-width="1" opacity="0.55"/><line x1="262.0" y1="725.0" x2="738.0" y2="725.0" stroke="#cbd5df" stroke-width="1" opacity="0.55"/><line x1="248.0" y1="740.0" x2="724.0" y2="740.0" stroke="#cbd5df" stroke-width="1" opacity="0.55"/><line x1="234.0" y1="755.0" x2="710.0" y2="755.0" stroke="#cbd5df" stroke-width="1" opacity="0.55"/><line x1="220.0" y1="770.0" x2="696.0" y2="770.0" stroke="#cbd5df" stroke-width="1" opacity="0.55"/><line x1="206.0" y1="785.0" x2="682.0" y2="785.0" stroke="#cbd5df" stroke-width="1" opacity="0.55"/><line x1="192.0" y1="800.0" x2="668.0" y2="800.0" stroke="#cbd5df" stroke-width="1" opacity="0.55"/><line x1="178.0" y1="815.0" x2="654.0" y2="815.0" stroke="#cbd5df" stroke-width="1" opacity="0.55"/><line x1="164.0" y1="830.0" x2="640.0" y2="830.0" stroke="#cbd5df" stroke-width="1" opacity="0.55"/><line x1="150.0" y1="845.0" x2="626.0" y2="845.0" stroke="#cbd5df" stroke-width="1" opacity="0.55"/><line x1="136.0" y1="860.0" x2="612.0" y2="860.0" stroke="#cbd5df" stroke-width="1" opacity="0.55"/><line x1="122.0" y1="875.0" x2="598.0" y2="875.0" stroke="#cbd5df" stroke-width="1" opacity="0.55"/><line x1="108.0" y1="890.0" x2="584.0" y2="890.0" stroke="#cbd5df" stroke-width="1" opacity="0.55"/><line x1="94.0" y1="905.0" x2="570.0" y2="905.0" stroke="#cbd5df" stroke-width="1" opacity="0.55"/><line x1="80.0" y1="920.0" x2="556.0" y2="920.0" stroke="#cbd5df" stroke-width="1" opacity="0.55"/><line x1="66.0" y1="935.0" x2="542.0" y2="935.0" stroke="#cbd5df" stroke-width="1" opacity="0.55"/><line x1="52.0" y1="950.0" x2="528.0" y2="950.0" stroke="#cbd5df" stroke-width="1" opacity="0.55"/><line x1="38.0" y1="965.0" x2="514.0" y2="965.0" stroke="#cbd5df" stroke-width="1" opacity="0.55"/>
  <polygon points="188.6,914.0 458.6,914.0 422.2,953.0 152.2,953.0" fill="#0f172a" opacity="0.1"/>
  <g filter="url(#softShadow)">
    <polygon points="447.6,636.5 717.6,636.5 475.4,896.0 205.4,896.0" fill="#9bb9a5" stroke="#6f947d" stroke-width="3" opacity="1"/>
    <line x1="447.6" y1="636.5" x2="582.6" y2="303.0" stroke="#14233a" stroke-width="8" stroke-linecap="round" opacity="1"/><line x1="717.6" y1="636.5" x2="582.6" y2="303.0" stroke="#14233a" stroke-width="8" stroke-linecap="round" opacity="1"/><line x1="447.6" y1="636.5" x2="717.6" y2="636.5" stroke="#24364f" stroke-width="5" stroke-linecap="round" opacity="0.8"/><line x1="405.6" y1="681.5" x2="540.6" y2="348.0" stroke="#14233a" stroke-width="8" stroke-linecap="round" opacity="1"/><line x1="675.6" y1="681.5" x2="540.6" y2="348.0" stroke="#14233a" stroke-width="8" stroke-linecap="round" opacity="1"/><line x1="405.6" y1="681.5" x2="675.6" y2="681.5" stroke="#24364f" stroke-width="5" stroke-linecap="round" opacity="0.8"/><line x1="363.6" y1="726.5" x2="498.6" y2="393.0" stroke="#14233a" stroke-width="8" stroke-linecap="round" opacity="1"/><line x1="633.6" y1="726.5" x2="498.6" y2="393.0" stroke="#14233a" stroke-width="8" stroke-linecap="round" opacity="1"/><line x1="363.6" y1="726.5" x2="633.6" y2="726.5" stroke="#24364f" stroke-width="5" stroke-linecap="round" opacity="0.8"/><line x1="321.6" y1="771.5" x2="456.6" y2="438.0" stroke="#14233a" stroke-width="8" stroke-linecap="round" opacity="1"/><line x1="591.6" y1="771.5" x2="456.6" y2="438.0" stroke="#14233a" stroke-width="8" stroke-linecap="round" opacity="1"/><line x1="321.6" y1="771.5" x2="591.6" y2="771.5" stroke="#24364f" stroke-width="5" stroke-linecap="round" opacity="0.8"/><line x1="279.6" y1="816.5" x2="414.6" y2="483.0" stroke="#14233a" stroke-width="8" stroke-linecap="round" opacity="1"/><line x1="549.6" y1="816.5" x2="414.6" y2="483.0" stroke="#14233a" stroke-width="8" stroke-linecap="round" opacity="1"/><line x1="279.6" y1="816.5" x2="549.6" y2="816.5" stroke="#24364f" stroke-width="5" stroke-linecap="round" opacity="0.8"/><line x1="237.6" y1="861.5" x2="372.6" y2="528.0" stroke="#14233a" stroke-width="8" stroke-linecap="round" opacity="1"/><line x1="507.6" y1="861.5" x2="372.6" y2="528.0" stroke="#14233a" stroke-width="8" stroke-linecap="round" opacity="1"/><line x1="237.6" y1="861.5" x2="507.6" y2="861.5" stroke="#24364f" stroke-width="5" stroke-linecap="round" opacity="0.8"/>
    <line x1="471.9" y1="576.5" x2="229.7" y2="836.0" stroke="#1d2b3e" stroke-width="4" opacity="0.88"/><line x1="693.3" y1="576.5" x2="451.1" y2="836.0" stroke="#1d2b3e" stroke-width="4" opacity="0.88"/><line x1="493.5" y1="523.1" x2="251.3" y2="782.6" stroke="#1d2b3e" stroke-width="4" opacity="0.88"/><line x1="671.7" y1="523.1" x2="429.5" y2="782.6" stroke="#1d2b3e" stroke-width="4" opacity="0.88"/><line x1="515.1" y1="469.8" x2="272.9" y2="729.3" stroke="#1d2b3e" stroke-width="4" opacity="0.88"/><line x1="650.1" y1="469.8" x2="407.9" y2="729.3" stroke="#1d2b3e" stroke-width="4" opacity="0.88"/><line x1="536.7" y1="416.4" x2="294.5" y2="675.9" stroke="#1d2b3e" stroke-width="4" opacity="0.88"/><line x1="628.5" y1="416.4" x2="386.3" y2="675.9" stroke="#1d2b3e" stroke-width="4" opacity="0.88"/>
    <polygon points="447.6,636.5 205.4,896.0 340.4,562.5 582.6,303.0" fill="url(#panel)" stroke="#78818a" stroke-width="2" opacity="0.72"/>
    <polygon points="582.6,303.0 340.4,562.5 475.4,896.0 717.6,636.5" fill="url(#panel)" stroke="#78818a" stroke-width="2" opacity="0.82"/>
    <line x1="454.4" y1="619.8" x2="212.2" y2="879.3" stroke="#8a9298" stroke-width="1" opacity="0.38"/><line x1="710.8" y1="619.8" x2="468.6" y2="879.3" stroke="#8a9298" stroke-width="1" opacity="0.38"/><line x1="461.8" y1="601.5" x2="219.6" y2="861.0" stroke="#8a9298" stroke-width="1" opacity="0.38"/><line x1="703.4" y1="601.5" x2="461.2" y2="861.0" stroke="#8a9298" stroke-width="1" opacity="0.38"/><line x1="469.2" y1="583.1" x2="227.0" y2="842.6" stroke="#8a9298" stroke-width="1" opacity="0.38"/><line x1="696.0" y1="583.1" x2="453.8" y2="842.6" stroke="#8a9298" stroke-width="1" opacity="0.38"/><line x1="476.7" y1="564.8" x2="234.5" y2="824.3" stroke="#8a9298" stroke-width="1" opacity="0.38"/><line x1="688.5" y1="564.8" x2="446.3" y2="824.3" stroke="#8a9298" stroke-width="1" opacity="0.38"/><line x1="484.1" y1="546.5" x2="241.9" y2="806.0" stroke="#8a9298" stroke-width="1" opacity="0.38"/><line x1="681.1" y1="546.5" x2="438.9" y2="806.0" stroke="#8a9298" stroke-width="1" opacity="0.38"/><line x1="491.5" y1="528.1" x2="249.3" y2="787.6" stroke="#8a9298" stroke-width="1" opacity="0.38"/><line x1="673.7" y1="528.1" x2="431.5" y2="787.6" stroke="#8a9298" stroke-width="1" opacity="0.38"/><line x1="498.9" y1="509.8" x2="256.7" y2="769.3" stroke="#8a9298" stroke-width="1" opacity="0.38"/><line x1="666.3" y1="509.8" x2="424.1" y2="769.3" stroke="#8a9298" stroke-width="1" opacity="0.38"/><line x1="506.3" y1="491.4" x2="264.1" y2="750.9" stroke="#8a9298" stroke-width="1" opacity="0.38"/><line x1="658.9" y1="491.4" x2="416.7" y2="750.9" stroke="#8a9298" stroke-width="1" opacity="0.38"/><line x1="513.8" y1="473.1" x2="271.6" y2="732.6" stroke="#8a9298" stroke-width="1" opacity="0.38"/><line x1="651.4" y1="473.1" x2="409.2" y2="732.6" stroke="#8a9298" stroke-width="1" opacity="0.38"/><line x1="521.2" y1="454.7" x2="279.0" y2="714.2" stroke="#8a9298" stroke-width="1" opacity="0.38"/><line x1="644.0" y1="454.7" x2="401.8" y2="714.2" stroke="#8a9298" stroke-width="1" opacity="0.38"/><line x1="528.6" y1="436.4" x2="286.4" y2="695.9" stroke="#8a9298" stroke-width="1" opacity="0.38"/><line x1="636.6" y1="436.4" x2="394.4" y2="695.9" stroke="#8a9298" stroke-width="1" opacity="0.38"/><line x1="536.0" y1="418.1" x2="293.8" y2="677.6" stroke="#8a9298" stroke-width="1" opacity="0.38"/><line x1="629.2" y1="418.1" x2="387.0" y2="677.6" stroke="#8a9298" stroke-width="1" opacity="0.38"/><line x1="543.5" y1="399.7" x2="301.3" y2="659.2" stroke="#8a9298" stroke-width="1" opacity="0.38"/><line x1="621.7" y1="399.7" x2="379.5" y2="659.2" stroke="#8a9298" stroke-width="1" opacity="0.38"/><line x1="550.9" y1="381.4" x2="308.7" y2="640.9" stroke="#8a9298" stroke-width="1" opacity="0.38"/><line x1="614.3" y1="381.4" x2="372.1" y2="640.9" stroke="#8a9298" stroke-width="1" opacity="0.38"/><line x1="558.3" y1="363.0" x2="316.1" y2="622.5" stroke="#8a9298" stroke-width="1" opacity="0.38"/><line x1="606.9" y1="363.0" x2="364.7" y2="622.5" stroke="#8a9298" stroke-width="1" opacity="0.38"/><line x1="565.7" y1="344.7" x2="323.5" y2="604.2" stroke="#8a9298" stroke-width="1" opacity="0.38"/><line x1="599.5" y1="344.7" x2="357.3" y2="604.2" stroke="#8a9298" stroke-width="1" opacity="0.38"/><line x1="573.2" y1="326.3" x2="331.0" y2="585.8" stroke="#8a9298" stroke-width="1" opacity="0.38"/><line x1="592.0" y1="326.3" x2="349.8" y2="585.8" stroke="#8a9298" stroke-width="1" opacity="0.38"/>
    <line x1="450.3" y1="629.8" x2="579.9" y2="309.7" stroke="#2b65d9" stroke-width="1.5" opacity="0.75"/><line x1="714.9" y1="629.8" x2="585.3" y2="309.7" stroke="#2b65d9" stroke-width="1.5" opacity="0.75"/><line x1="436.3" y1="644.8" x2="565.9" y2="324.7" stroke="#2b65d9" stroke-width="1.5" opacity="0.75"/><line x1="700.9" y1="644.8" x2="571.3" y2="324.7" stroke="#2b65d9" stroke-width="1.5" opacity="0.75"/><line x1="422.3" y1="659.8" x2="551.9" y2="339.7" stroke="#2b65d9" stroke-width="1.5" opacity="0.75"/><line x1="686.9" y1="659.8" x2="557.3" y2="339.7" stroke="#2b65d9" stroke-width="1.5" opacity="0.75"/><line x1="408.3" y1="674.8" x2="537.9" y2="354.7" stroke="#2b65d9" stroke-width="1.5" opacity="0.75"/><line x1="672.9" y1="674.8" x2="543.3" y2="354.7" stroke="#2b65d9" stroke-width="1.5" opacity="0.75"/><line x1="394.3" y1="689.8" x2="523.9" y2="369.7" stroke="#2b65d9" stroke-width="1.5" opacity="0.75"/><line x1="658.9" y1="689.8" x2="529.3" y2="369.7" stroke="#2b65d9" stroke-width="1.5" opacity="0.75"/><line x1="380.3" y1="704.8" x2="509.9" y2="384.7" stroke="#2b65d9" stroke-width="1.5" opacity="0.75"/><line x1="644.9" y1="704.8" x2="515.3" y2="384.7" stroke="#2b65d9" stroke-width="1.5" opacity="0.75"/><line x1="366.3" y1="719.8" x2="495.9" y2="399.7" stroke="#2b65d9" stroke-width="1.5" opacity="0.75"/><line x1="630.9" y1="719.8" x2="501.3" y2="399.7" stroke="#2b65d9" stroke-width="1.5" opacity="0.75"/><line x1="352.3" y1="734.8" x2="481.9" y2="414.7" stroke="#2b65d9" stroke-width="1.5" opacity="0.75"/><line x1="616.9" y1="734.8" x2="487.3" y2="414.7" stroke="#2b65d9" stroke-width="1.5" opacity="0.75"/><line x1="338.3" y1="749.8" x2="467.9" y2="429.7" stroke="#2b65d9" stroke-width="1.5" opacity="0.75"/><line x1="602.9" y1="749.8" x2="473.3" y2="429.7" stroke="#2b65d9" stroke-width="1.5" opacity="0.75"/><line x1="324.3" y1="764.8" x2="453.9" y2="444.7" stroke="#2b65d9" stroke-width="1.5" opacity="0.75"/><line x1="588.9" y1="764.8" x2="459.3" y2="444.7" stroke="#2b65d9" stroke-width="1.5" opacity="0.75"/><line x1="310.3" y1="779.8" x2="439.9" y2="459.7" stroke="#2b65d9" stroke-width="1.5" opacity="0.75"/><line x1="574.9" y1="779.8" x2="445.3" y2="459.7" stroke="#2b65d9" stroke-width="1.5" opacity="0.75"/><line x1="296.3" y1="794.8" x2="425.9" y2="474.7" stroke="#2b65d9" stroke-width="1.5" opacity="0.75"/><line x1="560.9" y1="794.8" x2="431.3" y2="474.7" stroke="#2b65d9" stroke-width="1.5" opacity="0.75"/><line x1="282.3" y1="809.8" x2="411.9" y2="489.7" stroke="#2b65d9" stroke-width="1.5" opacity="0.75"/><line x1="546.9" y1="809.8" x2="417.3" y2="489.7" stroke="#2b65d9" stroke-width="1.5" opacity="0.75"/><line x1="268.3" y1="824.8" x2="397.9" y2="504.7" stroke="#2b65d9" stroke-width="1.5" opacity="0.75"/><line x1="532.9" y1="824.8" x2="403.3" y2="504.7" stroke="#2b65d9" stroke-width="1.5" opacity="0.75"/><line x1="254.3" y1="839.8" x2="383.9" y2="519.7" stroke="#2b65d9" stroke-width="1.5" opacity="0.75"/><line x1="518.9" y1="839.8" x2="389.3" y2="519.7" stroke="#2b65d9" stroke-width="1.5" opacity="0.75"/><line x1="240.3" y1="854.8" x2="369.9" y2="534.7" stroke="#2b65d9" stroke-width="1.5" opacity="0.75"/><line x1="504.9" y1="854.8" x2="375.3" y2="534.7" stroke="#2b65d9" stroke-width="1.5" opacity="0.75"/><line x1="226.3" y1="869.8" x2="355.9" y2="549.7" stroke="#2b65d9" stroke-width="1.5" opacity="0.6500000000000004"/><line x1="490.9" y1="869.8" x2="361.3" y2="549.7" stroke="#2b65d9" stroke-width="1.5" opacity="0.6500000000000004"/><line x1="212.3" y1="884.8" x2="341.9" y2="564.7" stroke="#2b65d9" stroke-width="1.5" opacity="0.15000000000000036"/><line x1="476.9" y1="884.8" x2="347.3" y2="564.7" stroke="#2b65d9" stroke-width="1.5" opacity="0.15000000000000036"/>
    <polygon points="205.4,896.0 340.4,562.5 475.4,896.0" fill="#64748b" stroke="#24364f" stroke-width="2" opacity="0.396"/>
    <polygon points="447.6,636.5 717.6,636.5 582.6,303.0" fill="#a7c6d9" stroke="#24364f" stroke-width="3" opacity="0.72"/>
    <line x1="582.6" y1="303.0" x2="340.4" y2="562.5" stroke="#da2f26" stroke-width="8" stroke-linecap="round" opacity="1"/>
    <line x1="447.6" y1="636.5" x2="205.4" y2="896.0" stroke="#b87344" stroke-width="6" opacity="0.75"/>
    <line x1="717.6" y1="636.5" x2="475.4" y2="896.0" stroke="#b87344" stroke-width="6" opacity="0.75"/>
  </g>
  <path d="M910 720 C1000 690 1102 698 1182 736" fill="none" stroke="#0f766e" stroke-width="4" opacity="0.65"/>
</svg>